<svg width="230" height="24" viewBox="0 0 230 24" fill="none" xmlns="http://www.w3.org/2000/svg">
<path d="M63.2695 10.1055H61.2422V8.66407H63.1875C64.0469 8.66407 64.7422 8.54297 65.2734 8.30079C65.8047 8.0586 66.1914 7.72265 66.4336 7.29296C66.6758 6.86328 66.7968 6.36719 66.7968 5.80469C66.7968 5.26563 66.6641 4.77343 66.3984 4.32812C66.1328 3.87499 65.7227 3.51562 65.168 3.24999C64.6133 2.97657 63.8984 2.83984 63.0234 2.83984C62.3672 2.83984 61.7734 2.96484 61.2422 3.21484C60.7109 3.45703 60.2891 3.79688 59.9766 4.23438C59.6641 4.66407 59.5078 5.16015 59.5078 5.72265H57.2461C57.2461 4.99609 57.3984 4.34376 57.7031 3.76562C58.0078 3.17968 58.4258 2.68359 58.957 2.27734C59.4883 1.86328 60.1016 1.54688 60.7969 1.32812C61.5 1.10938 62.2422 1 63.0234 1C63.9375 1 64.7656 1.10547 65.5078 1.31641C66.25 1.51954 66.8867 1.82422 67.4179 2.23047C67.9492 2.63672 68.3554 3.14063 68.6367 3.74219C68.9179 4.34376 69.0586 5.04297 69.0586 5.83985C69.0586 6.42579 68.9218 6.97657 68.6484 7.49219C68.375 8.00782 67.9843 8.46094 67.4765 8.85157C66.9687 9.24219 66.3594 9.55078 65.6484 9.77734C64.9375 9.99609 64.1445 10.1055 63.2695 10.1055ZM61.2422 9.10938H63.2695C64.2305 9.10938 65.0859 9.20703 65.8359 9.40234C66.5859 9.59765 67.2187 9.88282 67.7343 10.2578C68.25 10.6328 68.6406 11.0977 68.9062 11.6524C69.1797 12.1992 69.3164 12.8281 69.3164 13.5391C69.3164 14.336 69.1601 15.043 68.8476 15.6602C68.5429 16.2774 68.1093 16.8008 67.5468 17.2305C66.9843 17.6602 66.3164 17.9844 65.543 18.2031C64.7773 18.4219 63.9375 18.5313 63.0234 18.5313C62.2891 18.5313 61.5625 18.4375 60.8437 18.25C60.1328 18.0547 59.4883 17.7578 58.9102 17.3594C58.332 16.9531 57.8672 16.4375 57.5156 15.8125C57.1719 15.1875 57 14.4375 57 13.5625H59.2617C59.2617 14.1328 59.418 14.6563 59.7305 15.1328C60.0508 15.6094 60.4922 15.9922 61.0547 16.2813C61.6172 16.5625 62.2734 16.7031 63.0234 16.7031C63.8828 16.7031 64.6094 16.5703 65.2031 16.3047C65.8047 16.0313 66.2617 15.6602 66.5742 15.1914C66.8945 14.7149 67.0547 14.1797 67.0547 13.586C67.0547 13.0625 66.9687 12.6094 66.7968 12.2266C66.6328 11.836 66.3867 11.5157 66.0586 11.2657C65.7383 11.0157 65.3359 10.8321 64.8516 10.7149C64.375 10.5899 63.8203 10.5274 63.1875 10.5274H61.2422V9.10938ZM79.4414 16.1289V9.60157C79.4414 9.10157 79.3398 8.66797 79.1367 8.30079C78.9414 7.92579 78.6445 7.63672 78.2461 7.4336C77.8476 7.23047 77.3554 7.1289 76.7695 7.1289C76.2226 7.1289 75.7421 7.22265 75.3281 7.41015C74.9218 7.59765 74.6015 7.84376 74.3671 8.14844C74.1406 8.45313 74.0273 8.78126 74.0273 9.13282H71.8593C71.8593 8.67969 71.9765 8.23046 72.2109 7.78515C72.4453 7.33984 72.7812 6.93749 73.2187 6.57812C73.664 6.21093 74.1953 5.92188 74.8125 5.71094C75.4375 5.49219 76.1328 5.38281 76.8984 5.38281C77.8203 5.38281 78.6328 5.53906 79.3359 5.85156C80.0468 6.16406 80.6015 6.63672 81 7.26954C81.4062 7.89454 81.6093 8.67969 81.6093 9.625V15.5313C81.6093 15.9531 81.6445 16.4024 81.7148 16.8789C81.7929 17.3555 81.9062 17.7657 82.0547 18.1094V18.2969H79.7929C79.6836 18.0469 79.5976 17.7149 79.5351 17.3008C79.4726 16.8789 79.4414 16.4883 79.4414 16.1289ZM79.8164 10.6094L79.8398 12.1328H77.6484C77.0312 12.1328 76.4804 12.1836 75.9961 12.2852C75.5117 12.3789 75.1054 12.5235 74.7773 12.7188C74.4492 12.9141 74.1992 13.1602 74.0273 13.4571C73.8554 13.7461 73.7695 14.086 73.7695 14.4766C73.7695 14.875 73.8593 15.2383 74.039 15.5664C74.2187 15.8946 74.4882 16.1563 74.8476 16.3516C75.2148 16.5391 75.664 16.6328 76.1953 16.6328C76.8593 16.6328 77.4453 16.4922 77.9531 16.211C78.4609 15.9297 78.8632 15.586 79.1601 15.1797C79.4648 14.7735 79.6289 14.3789 79.6523 13.9961L80.5781 15.0391C80.5234 15.3672 80.375 15.7305 80.1328 16.1289C79.8906 16.5274 79.5664 16.9102 79.1601 17.2774C78.7617 17.6367 78.2851 17.9375 77.7304 18.1797C77.1836 18.4141 76.5664 18.5313 75.8789 18.5313C75.0195 18.5313 74.2656 18.3633 73.6171 18.0274C72.9765 17.6914 72.4765 17.2422 72.1171 16.6797C71.7656 16.1094 71.5898 15.4727 71.5898 14.7696C71.5898 14.0899 71.7226 13.4922 71.9882 12.9766C72.2539 12.4531 72.6367 12.0196 73.1367 11.6758C73.6367 11.3242 74.2382 11.0586 74.9414 10.8789C75.6445 10.6992 76.4297 10.6094 77.2968 10.6094H79.8164ZM93.2109 5.61719V7.41015H87.3515V18.2969H85.1836V5.61719H93.2109ZM97.2656 8.05469V23.1719H95.0859V5.61719H97.0781L97.2656 8.05469ZM105.809 11.8516V12.0977C105.809 13.0196 105.699 13.875 105.48 14.6641C105.262 15.4453 104.941 16.125 104.52 16.7031C104.105 17.2813 103.594 17.7305 102.984 18.0508C102.375 18.3711 101.676 18.5313 100.887 18.5313C100.082 18.5313 99.3711 18.3985 98.7539 18.1328C98.1367 17.8672 97.6132 17.4805 97.1836 16.9727C96.7539 16.4649 96.4101 15.8555 96.1523 15.1446C95.9023 14.4336 95.7304 13.6328 95.6367 12.7422V11.4297C95.7304 10.4922 95.9062 9.65235 96.164 8.91016C96.4218 8.16797 96.7617 7.53515 97.1836 7.01171C97.6132 6.48046 98.1328 6.07813 98.7421 5.80469C99.3515 5.52344 100.055 5.38281 100.852 5.38281C101.648 5.38281 102.355 5.53906 102.973 5.85156C103.59 6.15625 104.109 6.59375 104.531 7.16406C104.953 7.73437 105.27 8.41796 105.48 9.21484C105.699 10.0039 105.809 10.8828 105.809 11.8516ZM103.629 12.0977V11.8516C103.629 11.2188 103.563 10.625 103.43 10.0703C103.297 9.50782 103.09 9.01562 102.809 8.59375C102.535 8.16406 102.184 7.82813 101.754 7.58594C101.324 7.33594 100.813 7.21094 100.219 7.21094C99.6718 7.21094 99.1953 7.30469 98.789 7.49219C98.3906 7.67969 98.0507 7.93359 97.7695 8.2539C97.4882 8.5664 97.2578 8.92579 97.0781 9.33204C96.9062 9.73047 96.7773 10.1445 96.6914 10.5742V13.6094C96.8476 14.1563 97.0664 14.6719 97.3476 15.1563C97.6289 15.6328 98.0039 16.0196 98.4726 16.3164C98.9414 16.6055 99.5312 16.75 100.242 16.75C100.828 16.75 101.332 16.6289 101.754 16.3867C102.184 16.1367 102.535 15.7969 102.809 15.3672C103.09 14.9375 103.297 14.4453 103.43 13.8907C103.563 13.3281 103.629 12.7305 103.629 12.0977ZM111.996 16.9844L115.523 5.61719H117.844L112.758 20.2539C112.641 20.5664 112.484 20.9024 112.289 21.2617C112.102 21.6289 111.859 21.9766 111.563 22.3047C111.266 22.6328 110.906 22.8985 110.484 23.1016C110.07 23.3125 109.574 23.418 108.996 23.418C108.824 23.418 108.605 23.3946 108.34 23.3477C108.074 23.3008 107.887 23.2617 107.777 23.2305L107.766 21.4727C107.828 21.4805 107.926 21.4883 108.059 21.4961C108.199 21.5117 108.297 21.5196 108.352 21.5196C108.844 21.5196 109.262 21.4531 109.605 21.3203C109.949 21.1953 110.238 20.9805 110.473 20.6758C110.715 20.3789 110.922 19.9688 111.094 19.4453L111.996 16.9844ZM109.406 5.61719L112.699 15.461L113.262 17.7461L111.703 18.543L107.039 5.61719H109.406ZM124.535 12.2383H122.203V10.9024H124.359C124.961 10.9024 125.438 10.8281 125.789 10.6797C126.141 10.5235 126.391 10.3086 126.539 10.0352C126.688 9.76172 126.762 9.4414 126.762 9.07421C126.762 8.74609 126.676 8.4375 126.504 8.14844C126.34 7.85157 126.074 7.61329 125.707 7.4336C125.34 7.2461 124.848 7.15235 124.23 7.15235C123.73 7.15235 123.277 7.24218 122.871 7.42188C122.465 7.59376 122.141 7.83203 121.898 8.13671C121.664 8.43359 121.547 8.76954 121.547 9.14454H119.379C119.379 8.3711 119.598 7.70704 120.035 7.15235C120.48 6.58985 121.07 6.15625 121.805 5.85156C122.547 5.54687 123.355 5.39454 124.23 5.39454C124.965 5.39454 125.621 5.47657 126.199 5.64062C126.785 5.79688 127.281 6.03125 127.688 6.34375C128.094 6.64843 128.402 7.03126 128.613 7.49219C128.832 7.94532 128.941 8.47265 128.941 9.07421C128.941 9.5039 128.84 9.91015 128.637 10.293C128.434 10.6758 128.141 11.0157 127.758 11.3125C127.375 11.6016 126.91 11.8281 126.363 11.9922C125.824 12.1563 125.215 12.2383 124.535 12.2383ZM122.203 11.418H124.535C125.293 11.418 125.961 11.4922 126.539 11.6407C127.117 11.7813 127.602 11.9922 127.992 12.2735C128.383 12.5547 128.676 12.9024 128.871 13.3164C129.074 13.7227 129.176 14.1914 129.176 14.7227C129.176 15.3164 129.055 15.8516 128.813 16.3281C128.578 16.7969 128.242 17.1953 127.805 17.5235C127.367 17.8516 126.844 18.1016 126.234 18.2735C125.633 18.4453 124.965 18.5313 124.23 18.5313C123.41 18.5313 122.613 18.3907 121.84 18.1094C121.066 17.8281 120.43 17.3946 119.93 16.8086C119.43 16.2149 119.18 15.461 119.18 14.5469H121.348C121.348 14.9297 121.469 15.293 121.711 15.6367C121.953 15.9805 122.289 16.2578 122.719 16.4688C123.156 16.6797 123.66 16.7852 124.23 16.7852C124.84 16.7852 125.348 16.6914 125.754 16.5039C126.16 16.3164 126.465 16.0664 126.668 15.7539C126.879 15.4414 126.984 15.1016 126.984 14.7344C126.984 14.2578 126.891 13.875 126.703 13.586C126.516 13.2969 126.227 13.086 125.836 12.9531C125.453 12.8125 124.961 12.7422 124.359 12.7422H122.203V11.418ZM134.344 5.61719V18.2969H132.176V5.61719H134.344ZM142.664 5.61719L136.652 12.8828H133.617L133.289 10.9844H135.773L140.027 5.61719H142.664ZM140.332 18.2969L135.668 12.5547L137.063 10.9844L143.086 18.2969H140.332ZM152.449 16.1289V9.60157C152.449 9.10157 152.348 8.66797 152.145 8.30079C151.949 7.92579 151.652 7.63672 151.254 7.4336C150.855 7.23047 150.363 7.1289 149.777 7.1289C149.23 7.1289 148.75 7.22265 148.336 7.41015C147.93 7.59765 147.609 7.84376 147.375 8.14844C147.148 8.45313 147.035 8.78126 147.035 9.13282H144.867C144.867 8.67969 144.984 8.23046 145.219 7.78515C145.453 7.33984 145.789 6.93749 146.227 6.57812C146.672 6.21093 147.203 5.92188 147.82 5.71094C148.445 5.49219 149.141 5.38281 149.906 5.38281C150.828 5.38281 151.641 5.53906 152.344 5.85156C153.055 6.16406 153.609 6.63672 154.008 7.26954C154.414 7.89454 154.617 8.67969 154.617 9.625V15.5313C154.617 15.9531 154.652 16.4024 154.723 16.8789C154.801 17.3555 154.914 17.7657 155.063 18.1094V18.2969H152.801C152.691 18.0469 152.605 17.7149 152.543 17.3008C152.48 16.8789 152.449 16.4883 152.449 16.1289ZM152.824 10.6094L152.848 12.1328H150.656C150.039 12.1328 149.488 12.1836 149.004 12.2852C148.52 12.3789 148.113 12.5235 147.785 12.7188C147.457 12.9141 147.207 13.1602 147.035 13.4571C146.863 13.7461 146.777 14.086 146.777 14.4766C146.777 14.875 146.867 15.2383 147.047 15.5664C147.227 15.8946 147.496 16.1563 147.855 16.3516C148.223 16.5391 148.672 16.6328 149.203 16.6328C149.867 16.6328 150.453 16.4922 150.961 16.211C151.469 15.9297 151.871 15.586 152.168 15.1797C152.473 14.7735 152.637 14.3789 152.66 13.9961L153.586 15.0391C153.531 15.3672 153.383 15.7305 153.141 16.1289C152.898 16.5274 152.574 16.9102 152.168 17.2774C151.77 17.6367 151.293 17.9375 150.738 18.1797C150.191 18.4141 149.574 18.5313 148.887 18.5313C148.027 18.5313 147.273 18.3633 146.625 18.0274C145.984 17.6914 145.484 17.2422 145.125 16.6797C144.773 16.1094 144.598 15.4727 144.598 14.7696C144.598 14.0899 144.73 13.4922 144.996 12.9766C145.262 12.4531 145.645 12.0196 146.145 11.6758C146.645 11.3242 147.246 11.0586 147.949 10.8789C148.652 10.6992 149.438 10.6094 150.305 10.6094H152.824ZM158.063 17.1485C158.063 16.7813 158.176 16.4727 158.402 16.2227C158.637 15.9649 158.973 15.836 159.41 15.836C159.848 15.836 160.18 15.9649 160.406 16.2227C160.641 16.4727 160.758 16.7813 160.758 17.1485C160.758 17.5078 160.641 17.8125 160.406 18.0625C160.18 18.3125 159.848 18.4375 159.41 18.4375C158.973 18.4375 158.637 18.3125 158.402 18.0625C158.176 17.8125 158.063 17.5078 158.063 17.1485ZM164.391 17.1485C164.391 16.7813 164.504 16.4727 164.731 16.2227C164.965 15.9649 165.301 15.836 165.738 15.836C166.176 15.836 166.508 15.9649 166.734 16.2227C166.969 16.4727 167.086 16.7813 167.086 17.1485C167.086 17.5078 166.969 17.8125 166.734 18.0625C166.508 18.3125 166.176 18.4375 165.738 18.4375C165.301 18.4375 164.965 18.3125 164.731 18.0625C164.504 17.8125 164.391 17.5078 164.391 17.1485ZM170.719 17.1485C170.719 16.7813 170.832 16.4727 171.059 16.2227C171.293 15.9649 171.629 15.836 172.066 15.836C172.504 15.836 172.836 15.9649 173.063 16.2227C173.297 16.4727 173.414 16.7813 173.414 17.1485C173.414 17.5078 173.297 17.8125 173.063 18.0625C172.836 18.3125 172.504 18.4375 172.066 18.4375C171.629 18.4375 171.293 18.3125 171.059 18.0625C170.832 17.8125 170.719 17.5078 170.719 17.1485Z" fill="#818EA3"/>
</svg>
