<svg width="110" height="110" viewBox="0 0 110 110" fill="none" xmlns="http://www.w3.org/2000/svg">
<path d="M87.2668 31.5733C86.2852 31.3755 85.3284 32.0084 85.1294 32.99C84.9304 33.9715 85.5648 34.9284 86.5461 35.1274C86.8234 35.1835 87.0328 35.4383 87.0328 35.7197V74.401C87.0328 74.7286 86.7559 75.0054 86.4284 75.0054H43.4382C42.4368 75.0054 41.625 75.817 41.625 76.8186C41.625 77.8202 42.4368 78.6318 43.4382 78.6318H86.4286C88.7613 78.6318 90.6594 76.7337 90.6594 74.401V35.7197C90.6594 33.7155 89.2328 31.9717 87.2668 31.5733Z" fill="#818EA3"/>
<path d="M66.4409 31.489H23.5713C21.2386 31.489 19.3406 33.3871 19.3406 35.7198V74.4011C19.3406 76.3504 20.6654 78.0386 22.5622 78.5066C22.7083 78.5427 22.8543 78.5601 22.9981 78.5601C23.8126 78.5601 24.5531 78.0072 24.7572 77.1808C24.997 76.2087 24.4035 75.226 23.4314 74.9862C23.2005 74.9293 22.9672 74.7098 22.9672 74.4011V35.7198C22.9672 35.3922 23.244 35.1154 23.5716 35.1154H66.4411C67.4425 35.1154 68.2543 34.3038 68.2543 33.3022C68.2543 32.3006 67.4422 31.489 66.4409 31.489Z" fill="#818EA3"/>
<path d="M56.9009 41.2919C56.2591 41.2042 55.6196 41.1594 55 41.1594C47.3348 41.1594 41.0989 47.3953 41.0989 55.0605C41.0989 55.6802 41.1436 56.3198 41.2314 56.9615C41.3559 57.8702 42.1334 58.5288 43.0254 58.5288C43.1074 58.5288 43.1903 58.5232 43.2737 58.5119C44.2659 58.376 44.96 57.4614 44.8241 56.4695C44.7586 55.9903 44.7253 55.5162 44.7253 55.0605C44.7253 49.3949 49.3344 44.7858 55 44.7858C55.4554 44.7858 55.9295 44.8192 56.4089 44.8847C57.4021 45.021 58.3154 44.3265 58.4513 43.3343C58.5872 42.3423 57.8931 41.4275 56.9009 41.2919Z" fill="#818EA3"/>
<path d="M52.9758 68.813C53.6501 68.9114 54.3309 68.9614 55.0001 68.9614C62.6653 68.9614 68.9012 62.7255 68.9012 55.0603C68.9012 54.3906 68.8511 53.7096 68.753 53.0361C68.6082 52.0451 67.6873 51.3597 66.6968 51.5041C65.7059 51.6489 65.02 52.5692 65.1648 53.5602C65.2381 54.0609 65.275 54.5654 65.275 55.0603C65.275 60.7259 60.6659 65.335 55.0003 65.335C54.5062 65.335 54.0014 65.2981 53.5002 65.2248C52.5092 65.0797 51.5886 65.7659 51.4441 66.7568C51.2995 67.7478 51.9849 68.6682 52.9758 68.813Z" fill="#818EA3"/>
<path d="M76.9999 49.1373C79.1994 49.1373 80.9889 47.3478 80.9889 45.1483C80.9889 43.1373 79.4835 41.4361 77.4873 41.1907C76.9329 41.1237 76.3788 41.3138 75.984 41.7085L73.5599 44.1326C73.1651 44.5272 72.9744 45.0818 73.0423 45.6357C73.2877 47.6319 74.9892 49.1373 76.9999 49.1373Z" fill="#818EA3"/>
<path d="M28.4067 27.7419H35.6594C36.6608 27.7419 37.4726 26.9303 37.4726 25.9287C37.4726 24.9271 36.6608 24.1155 35.6594 24.1155H28.4067C27.4053 24.1155 26.5935 24.9271 26.5935 25.9287C26.5935 26.9303 27.4053 27.7419 28.4067 27.7419Z" fill="#818EA3"/>
<path d="M93.8909 16.1091C83.5026 5.72097 69.6912 0 55 0C40.3088 0 26.4974 5.72097 16.1091 16.1091C5.72097 26.4974 0 40.3088 0 55C0 69.6912 5.72097 83.5026 16.1091 93.8909C26.4974 104.279 40.3088 110 55 110C69.6912 110 83.5026 104.279 93.8909 93.8909C104.279 83.5026 110 69.6912 110 55C110 40.3088 104.279 26.4974 93.8909 16.1091ZM3.62637 55C3.62637 26.6725 26.6725 3.62637 55 3.62637C68.5128 3.62637 80.8215 8.87325 90.0025 17.4332L17.4332 90.0025C8.87325 80.8215 3.62637 68.5131 3.62637 55ZM55 106.374C41.4872 106.374 29.1785 101.127 19.9975 92.5668L92.5668 19.9975C101.127 29.1785 106.374 41.4872 106.374 55C106.374 83.3275 83.3275 106.374 55 106.374Z" fill="#818EA3"/>
</svg>
