<svg width="15" height="15" viewBox="0 0 15 15" fill="none" xmlns="http://www.w3.org/2000/svg">
<path fill-rule="evenodd" clip-rule="evenodd" d="M9.87336 9.30503H10.5057L14.5 13.3073L13.3073 14.5L9.30503 10.5057V9.87336L9.08891 9.64923C8.17639 10.4337 6.99171 10.9059 5.70297 10.9059C2.82933 10.9059 0.5 8.57662 0.5 5.70297C0.5 2.82933 2.82933 0.5 5.70297 0.5C8.57662 0.5 10.9059 2.82933 10.9059 5.70297C10.9059 6.99171 10.4337 8.17639 9.64923 9.08891L9.87336 9.30503ZM2.19702 5.80302C2.19702 7.79837 3.80773 9.40908 5.80308 9.40908C7.79844 9.40908 9.40914 7.79837 9.40914 5.80302C9.40914 3.80767 7.79844 2.19696 5.80308 2.19696C3.80773 2.19696 2.19702 3.80767 2.19702 5.80302Z" fill="#CACEDB"/>
</svg>
