<svg width="18" height="18" viewBox="0 0 18 18" fill="none" xmlns="http://www.w3.org/2000/svg">
<path d="M9 17.7349C7.27243 17.7349 5.58366 17.2226 4.14724 16.2628C2.71082 15.303 1.59127 13.9388 0.930155 12.3428C0.269043 10.7467 0.0960665 8.99043 0.433098 7.29606C0.77013 5.60169 1.60203 4.0453 2.82361 2.82373C4.04518 1.60216 5.60156 0.770252 7.29594 0.43322C8.99031 0.0961886 10.7466 0.269165 12.3426 0.930277C13.9387 1.59139 15.3029 2.71094 16.2627 4.14736C17.2225 5.58378 17.7347 7.27255 17.7347 9.00012C17.7321 11.3159 16.811 13.5361 15.1735 15.1736C13.536 16.8111 11.3158 17.7322 9 17.7349V17.7349ZM9 1.4496C7.50665 1.4496 6.04683 1.89243 4.80515 2.72209C3.56347 3.55175 2.5957 4.73098 2.02422 6.11066C1.45274 7.49034 1.30322 9.0085 1.59455 10.4732C1.88589 11.9378 2.60501 13.2832 3.66097 14.3392C4.71693 15.3951 6.06231 16.1142 7.52697 16.4056C8.99162 16.6969 10.5098 16.5474 11.8895 15.9759C13.2691 15.4044 14.4484 14.4366 15.278 13.195C16.1077 11.9533 16.5505 10.4935 16.5505 9.00012C16.5483 6.99829 15.752 5.0791 14.3365 3.66359C12.921 2.24808 11.0018 1.45185 9 1.4496V1.4496Z" fill="white"/>
<path d="M9.00005 13.3199C9.49135 13.3199 9.88963 12.9217 9.88963 12.4304C9.88963 11.939 9.49135 11.5408 9.00005 11.5408C8.50875 11.5408 8.11047 11.939 8.11047 12.4304C8.11047 12.9217 8.50875 13.3199 9.00005 13.3199Z" fill="white"/>
<path d="M8.98526 10.2169C8.83892 10.2171 8.69815 10.1608 8.59227 10.0598C8.48639 9.95873 8.42355 9.82076 8.41684 9.67456L8.21553 5.46683C8.21111 5.36119 8.22815 5.25575 8.26561 5.15688C8.30307 5.058 8.36018 4.96775 8.43349 4.89156C8.50681 4.81537 8.5948 4.75483 8.69215 4.71359C8.78951 4.67235 8.89422 4.65127 8.99995 4.65162V4.65162C9.10586 4.65162 9.21066 4.67313 9.30802 4.71483C9.40537 4.75653 9.49325 4.81756 9.56632 4.89422C9.63939 4.97088 9.69615 5.06158 9.73314 5.16082C9.77013 5.26006 9.78659 5.36577 9.78153 5.47156L9.55084 9.67835C9.54322 9.82338 9.48037 9.96 9.37519 10.0602C9.27002 10.1603 9.1305 10.2164 8.98526 10.2169V10.2169Z" fill="white"/>
</svg>
